<?xml version="1.0" encoding="UTF-8"?>
<svg width="22px" height="22px" viewBox="0 0 22 22" version="1.1" xmlns="http://www.w3.org/2000/svg" xmlns:xlink="http://www.w3.org/1999/xlink">
<defs></defs>
<g id="Page-1" stroke="none" stroke-width="1" fill="none" fill-rule="evenodd">
<path d="M21.1955371,6.63937245 L20.2232127,7.61215019 L14.388768,1.77852154 L15.3610923,0.80565312 C16.4351604,-0.26855104 18.1769109,-0.26855104 19.2510697,0.80565312 L21.1955371,2.75061918 C22.2681543,3.82423392 22.2681543,5.56525897 21.1955371,6.63937245 L21.1955371,6.63937245 Z M7.5824069,18.3059043 C7.3139012,18.57441 7.3139012,19.0092695 7.5824069,19.2778206 C7.85104862,19.5478225 8.28613486,19.5478225 8.55464056,19.2778206 L19.2510697,8.58433851 L18.2776572,7.61147008 L7.5824069,18.3059043 L7.5824069,18.3059043 Z M2.72042249,13.4450534 C2.45178077,13.7137858 2.45178077,14.148464 2.72042249,14.417151 C2.98892819,14.6857021 3.42401443,14.6857021 3.69265615,14.417151 L14.388768,3.72285284 L13.4168517,2.75061918 L2.72042249,13.4450534 L2.72042249,13.4450534 Z M15.3598228,4.69436105 L4.6646631,15.389294 C4.12760636,15.9253079 4.12896657,16.7967046 4.6646631,17.3337613 C5.20194654,17.8708634 6.07193766,17.8733571 6.61039995,17.3323104 L17.3055596,6.63937245 L15.3598228,4.69436105 L15.3598228,4.69436105 Z M6.60763419,20.2475605 C6.27878045,19.9182987 6.1202705,19.5010312 6.06128267,19.0710685 C5.92149829,19.0926505 5.78071643,19.1127363 5.63689676,19.1127363 C4.90229201,19.1127363 4.21234752,18.8255957 3.69265615,18.3059043 C3.17296477,17.784898 2.88695769,17.0959057 2.88695769,16.3613916 C2.88695769,16.2274562 2.90704347,16.0969212 2.92590507,15.9667944 C2.48143337,15.906265 2.07060424,15.7115734 1.74832485,15.389294 C1.71740272,15.3585986 1.70674773,15.3169308 1.67859136,15.2832882 L0,21.999694 L6.6989497,20.3227348 C6.66943312,20.295848 6.63601726,20.2757169 6.60763419,20.2475605 L6.60763419,20.2475605 Z" id="Shape" fill="#7ED321"></path>
</g>
</svg>
