<?xml version="1.0" encoding="UTF-8"?>
<svg width="21px" height="22px" viewBox="0 0 21 22" version="1.1" xmlns="http://www.w3.org/2000/svg" xmlns:xlink="http://www.w3.org/1999/xlink">
<defs></defs>
<g id="Page-1" stroke="none" stroke-width="1" fill="none" fill-rule="evenodd">
<path d="M14.5038867,3.30287891 L20.5064922,3.30287891 L20.5064922,5.02609766 L18.6818672,5.02609766 L17.2573242,21.2136289 C17.2185664,21.6585273 16.8457695,22 16.3991523,22 L4.07829297,22 C3.63171875,22 3.25917969,21.6587852 3.22012109,21.2139297 L1.79562109,5.02609766 L0,5.02609766 L0,3.30287891 L6.00260547,3.30287891 L6.00260547,1.43601563 C6.00260547,0.6441875 6.64679297,4.4408921e-16 7.43862109,4.4408921e-16 L13.0678711,4.4408921e-16 C13.8596992,4.4408921e-16 14.5038867,0.6441875 14.5038867,1.43601563 L14.5038867,3.30287891 Z M12.780668,3.30287891 L7.72582422,3.30287891 L7.72582422,1.72321875 L12.780668,1.72321875 L12.780668,3.30287891 Z M15.6099453,20.2767812 L4.86728516,20.2767812 L3.52545703,5.02609766 L16.9520742,5.02609766 L15.6099453,20.2767812 Z M14.4458789,7.58510156 L12.7237773,7.5219375 L12.3504219,17.7177344 L14.0725234,17.7806406 L14.4458789,7.58510156 Z M9.39163672,7.55351953 L11.1148555,7.55351953 L11.1148555,17.7493594 L9.39163672,17.7493594 L9.39163672,7.55351953 Z M8.15576953,17.7174766 L7.78241406,7.52163672 L6.0603125,7.58484375 L6.43371094,17.7806406 L8.15576953,17.7174766 Z" id="Combined-Shape" fill="#444444"></path>
</g>
</svg>
